<svg height="512" viewBox="0 0 60 60" width="512" xmlns="http://www.w3.org/2000/svg"><g id="Page-1" fill="none" fill-rule="evenodd"><g id="028---Wine-and-Cheese" fill="rgb(0,0,0)" fill-rule="nonzero"><path id="Shape" d="m41.918 45.653c-.0841545-.2515948-.2648355-.4594384-.5022733-.5777822-.2374377-.1183438-.5121705-.1374876-.7637267-.0532178l-6 2.005c-.7257466-1.6635469-2.2788381-2.8178048-4.081-3.033-2.962-.284-5.629 2.307-5.961 5.773-.02.218-.025.424-.027.628l-15.583 5.214v-15.609c0-.5522847-.44771525-1-1-1s-1 .4477153-1 1v15.673c-2.588-.929-5-2.973-5-5.753v-23.155c1.37060027 1.4363742 3.09498353 2.4868685 5 3.046v4.189c0 .5522847.44771525 1 1 1s1-.4477153 1-1v-4.271l10.976-3.569c.1167604.1322109.226575.270397.329.414.9480466 1.3778416 2.4635019 2.2584936 4.13 2.4.161.013.32.02.479.02 3.152842-.0923953 5.7451921-2.5146639 6.051-5.654.0617572-.5503199.0442454-1.1066535-.052-1.652-.0139801-.0784427-.0371392-.1549686-.069-.228l-.043-.1c-.098543-.2547353-.228911-.4959832-.388-.718-2.146-2.752-6.909-2.29-9.521-.9-1.0874014.535004-1.9235457 1.4726621-2.331 2.614-.2451127.6936162-.2215663 1.4538816.066 2.131l-10.422 3.397c-.19335289.0670954-.40242931.074413-.6.021-3.405-1.061-5.605-3.405-5.605-5.985 0-1.92 1.36-3.545 4.058-4.836.12898714-.0584057.26944002-.0871114.411-.084l24.91.02c.5522847 0 1-.4477153 1-1s-.4477153-1-1-1l-24.909-.02c-.4467242-.0042655-.88844416.0942747-1.291.288-4.279 2.047-5.179 4.736-5.179 6.632v28c0 4.08 3.591 6.906 7.159 7.905.23736504.063886.48218934.0958342.728.095.33646463-.0016167.67056909-.0562883.99-.162l32.41-10.84c.5234078-.1752562.8058338-.7414509.631-1.265zm-21.453-22.676c.2546883-.6430487.7434718-1.1657756 1.368-1.463 1.1580953-.5808836 2.4353903-.884545 3.731-.887 1.2203215-.1022368 2.421151.3545566 3.265 1.242.0524198.0911577.0972381.1864803.134.285.0451586.3225019.0495263.6494068.013.973-.1893609 2.2504726-2.1195877 3.9513306-4.376 3.856-1.0758583-.0871316-2.0536368-.6590051-2.657-1.554-.2870262-.3936128-.602184-.7659202-.943-1.114-.164-.176-.329-.352-.485-.536-.1485588-.2425237-.1672857-.5429025-.05-.802zm9.922 23.008c1.0143904.1368493 1.8949861.767612 2.351 1.684l-6.089 2.036c.319-2.237 1.943-3.889 3.738-3.72z"/><path id="Shape" d="m27 36.5c0-3.0375661-2.4624339-5.5-5.5-5.5s-5.5 2.4624339-5.5 5.5 2.4624339 5.5 5.5 5.5c3.0361953-.0033068 5.4966932-2.4638047 5.5-5.5zm-5.5 3.5c-1.4156179 0-2.6918449-.8527476-3.2335784-2.160608s-.2422883-2.8132727.7587047-3.8142657 2.5064053-1.3004382 3.8142657-.7587047 2.160608 1.8179605 2.160608 3.2335784c0 1.9329966-1.5670034 3.5-3.5 3.5z"/><path id="Shape" d="m31 37c0 2.209139 1.790861 4 4 4s4-1.790861 4-4-1.790861-4-4-4-4 1.790861-4 4zm4-2c1.1045695 0 2 .8954305 2 2s-.8954305 2-2 2-2-.8954305-2-2 .8954305-2 2-2z"/><path id="Shape" d="m15 51c2.209139 0 4-1.790861 4-4s-1.790861-4-4-4-4 1.790861-4 4 1.790861 4 4 4zm0-6c1.1045695 0 2 .8954305 2 2s-.8954305 2-2 2-2-.8954305-2-2 .8954305-2 2-2z"/><path id="Shape" d="m5.6 21.4c0 1.71 2.02 3 4.7 3s4.7-1.29 4.7-3-2.021-3-4.7-3-4.7 1.289-4.7 3zm7.4 0c0 .257-.929 1-2.7 1s-2.7-.743-2.7-1 .928-1 2.7-1 2.7.743 2.7 1z"/><circle id="Oval" cx="32" cy="28" r="1"/><circle id="Oval" cx="13" cy="33" r="1"/><circle id="Oval" cx="22" cy="45" r="1"/><path id="Shape" d="m59.975 21c0-3.089-1.124-11.433-2.94-19.524-.1900368-.86548983-.9589043-1.48058386-1.845-1.476h-16.407c-.8857215-.00411103-1.6540417.61087841-1.844 1.476-1.815 8.091-2.939 16.435-2.939 19.524.0083382 6.0072847 4.128924 11.2276577 9.97 12.631v16.45c-4.753.494-7.995 2.4-7.995 4.769 0 2.882 4.832 5.14 11 5.14s11-2.258 11-5.14c0-2.375-3.247-4.278-8.005-4.77v-16.44c5.8580342-1.3906647 9.996575-6.619166 10.005-12.64zm-21.104-19h16.229c.672 3.006 1.246 6.035 1.7 8.8l-1.353-.746c-2.7943525-1.51994516-6.1686475-1.51994516-8.963 0-2.1887811 1.2160101-4.8502189 1.2160101-7.039 0l-1.962-1.089c.396-2.245.861-4.611 1.388-6.965zm-2.871 19c.1579302-3.3357841.5347409-6.6575975 1.128-9.944l1.353.751c2.7902018 1.5499516 6.1827982 1.5499516 8.973 0 2.1916823-1.1964362 4.8413177-1.1964362 7.033 0l2.713 1.493c.417688 2.5482386.6781803 5.1197643.78 7.7 0 6.0696094-4.9203906 10.99-10.99 10.99s-10.99-4.9203906-10.99-10.99zm19.975 33.85c0 1.107-3.417 3.14-9 3.14s-9-2.033-9-3.14c0-.754 1.83-2.288 6-2.758.0419331 1.6212164 1.3682414 2.9136631 2.99 2.9136631s2.9480669-1.2924467 2.99-2.9136631c4.187.467 6.02 2.008 6.02 2.758zm-8.005-2.86c0 .5522847-.4477153 1-1 1s-1-.4477153-1-1v-1.031c0-.007 0-.014 0-.021v-.011-16.979c.337.027.674.052 1.017.052s.657-.025.983-.05z"/><path id="Shape" d="m47.987 29c0-.5522847-.4477153-1-1-1-3.8609155-.0071703-6.9870067-3.1390779-6.987-7 0-.5522847-.4477153-1-1-1s-1 .4477153-1 1c-.0000052 4.9654904 4.0215148 8.9928276 8.987 9 .5522847 0 1-.4477153 1-1z"/></g></g></svg>