<svg height="512pt" viewBox="0 0 512 512" width="512pt" xmlns="http://www.w3.org/2000/svg"><path d="m210 202.5c0 4.140625-3.359375 7.5-7.5 7.5s-7.5-3.359375-7.5-7.5 3.359375-7.5 7.5-7.5 7.5 3.359375 7.5 7.5zm0 0"/><path d="m240 232.5c0 4.140625-3.359375 7.5-7.5 7.5s-7.5-3.359375-7.5-7.5 3.359375-7.5 7.5-7.5 7.5 3.359375 7.5 7.5zm0 0"/><path d="m347 354.5c0 4.140625-3.359375 7.5-7.5 7.5s-7.5-3.359375-7.5-7.5 3.359375-7.5 7.5-7.5 7.5 3.359375 7.5 7.5zm0 0"/><path d="m150 369.5c0 4.140625-3.359375 7.5-7.5 7.5s-7.5-3.359375-7.5-7.5 3.359375-7.5 7.5-7.5 7.5 3.359375 7.5 7.5zm0 0"/><path d="m142.5 195c-20.679688 0-37.5 16.820312-37.5 37.5s16.820312 37.5 37.5 37.5 37.5-16.820312 37.5-37.5-16.820312-37.5-37.5-37.5zm0 60c-12.40625 0-22.5-10.09375-22.5-22.5s10.09375-22.5 22.5-22.5 22.5 10.09375 22.5 22.5-10.09375 22.5-22.5 22.5zm0 0"/><path d="m37.5 422h437c4.140625 0 7.5-3.355469 7.5-7.5v-257c0-4.144531-3.359375-7.5-7.5-7.5h-211v-75h105v15h-82.5c-4.140625 0-7.5 3.355469-7.5 7.5s3.359375 7.5 7.5 7.5h90c4.140625 0 7.5-3.355469 7.5-7.5v-90c0-4.144531-3.359375-7.5-7.5-7.5h-120c-4.140625 0-7.5 3.355469-7.5 7.5v142.5h-211c-4.140625 0-7.5 3.355469-7.5 7.5v122c0 4.144531 3.359375 7.5 7.5 7.5 20.679688 0 37.5 16.820312 37.5 37.5s-16.820312 37.5-37.5 37.5c-4.140625 0-7.5 3.355469-7.5 7.5v45c0 4.144531 3.359375 7.5 7.5 7.5zm226-362v-15h105v15zm105-45v15h-105v-15zm-149.246094 392c3.484375-17.097656 18.636719-30 36.746094-30s33.261719 12.902344 36.746094 30zm-174.253906-30.535156c25.410156-3.648438 45-25.5625 45-51.964844s-19.589844-48.316406-45-51.964844v-107.535156h422v242h-159.042969c-3.652343-25.40625-25.554687-45-51.957031-45s-48.304688 19.59375-51.957031 45h-159.042969zm0 0"/><path d="m377 354.5c0 20.679688 16.820312 37.5 37.5 37.5s37.5-16.820312 37.5-37.5-16.820312-37.5-37.5-37.5-37.5 16.820312-37.5 37.5zm60 0c0 12.40625-10.09375 22.5-22.5 22.5s-22.5-10.09375-22.5-22.5 10.09375-22.5 22.5-22.5 22.5 10.09375 22.5 22.5zm0 0"/><path d="m369.5 285c28.949219 0 52.5-23.550781 52.5-52.5s-23.550781-52.5-52.5-52.5c-7.917969 0-15.535156 1.722656-22.636719 5.121094-3.734375 1.789062-5.316406 6.269531-3.527343 10.003906 1.789062 3.738281 6.265624 5.316406 10.003906 3.527344 5.0625-2.421875 10.5-3.652344 16.160156-3.652344 20.679688 0 37.5 16.820312 37.5 37.5s-16.820312 37.5-37.5 37.5-37.5-16.820312-37.5-37.5c0-5.660156 1.230469-11.097656 3.652344-16.160156 1.789062-3.738282.207031-8.21875-3.527344-10.003906-3.734375-1.785157-8.214844-.207032-10.003906 3.527343-3.398438 7.101563-5.121094 14.71875-5.121094 22.636719 0 28.949219 23.550781 52.5 52.5 52.5zm0 0"/><path d="m504.5 437h-497c-4.140625 0-7.5 3.355469-7.5 7.5v60c0 4.144531 3.359375 7.5 7.5 7.5h497c4.140625 0 7.5-3.355469 7.5-7.5v-60c0-4.144531-3.359375-7.5-7.5-7.5zm-7.5 30h-181c-4.136719 0-7.5-3.363281-7.5-7.5s3.363281-7.5 7.5-7.5h181zm-482 15h211c4.136719 0 7.5 3.363281 7.5 7.5s-3.363281 7.5-7.5 7.5h-211zm232.210938 15c.832031-2.347656 1.289062-4.871094 1.289062-7.5 0-12.40625-10.09375-22.5-22.5-22.5h-211v-15h279.789062c-.832031 2.347656-1.289062 4.871094-1.289062 7.5 0 12.40625 10.09375 22.5 22.5 22.5h181v15zm0 0"/></svg>